<svg width="64" height="64" viewBox="0 0 64 64" fill="none" xmlns="http://www.w3.org/2000/svg">
<path opacity="0.25" d="M6.40039 56C6.40039 56.8487 9.09753 57.6627 13.8985 58.2628C18.6994 58.8629 25.2108 59.2001 32.0004 59.2001C38.7899 59.2001 45.3014 58.8629 50.1023 58.2628C54.9033 57.6627 57.6004 56.8487 57.6004 56C57.6004 55.1514 54.9033 54.3374 50.1023 53.7373C45.3014 53.1372 38.7899 52.8 32.0004 52.8C25.2108 52.8 18.6994 53.1372 13.8985 53.7373C9.09753 54.3374 6.40039 55.1514 6.40039 56V56Z" fill="#EDECFD"/>
<path opacity="0.5" d="M7.29688 23.5521C7.29688 24.0961 7.71287 24.5121 8.25687 24.5121C8.80087 24.5121 9.21687 24.0961 9.21687 23.5521C9.21687 23.0081 8.80087 22.5921 8.25687 22.5921C7.74487 22.5921 7.29688 23.0401 7.29688 23.5521ZM57.9209 52.0001C56.7049 52.3201 56.4489 52.5761 56.1609 53.7601C55.8409 52.5441 55.5849 52.2881 54.4009 52.0001C55.5849 51.6801 55.8729 51.4241 56.1609 50.2401C56.4489 51.4241 56.7049 51.7121 57.9209 52.0001ZM12.6409 20.1921C11.0729 20.6081 10.7529 20.9281 10.3369 22.4961C9.92088 20.9281 9.60087 20.6081 8.03287 20.1921C9.60087 19.7761 9.92088 19.4241 10.3369 17.8881C10.7209 19.4561 11.0729 19.7761 12.6409 20.1921ZM51.0409 14.6881C50.0809 14.9441 49.8889 15.1361 49.6329 16.0961C49.3769 15.1361 49.1849 14.9441 48.2249 14.6881C49.1849 14.4321 49.3769 14.2401 49.6329 13.2801C49.8569 14.2401 50.0809 14.4321 51.0409 14.6881ZM55.1689 9.76008C52.6729 10.4001 52.1609 10.9441 51.4889 13.4401C50.8489 10.9441 50.3049 10.4321 47.8089 9.76008C50.3049 9.12008 50.8169 8.57608 51.4889 6.08008C52.1289 8.54408 52.6729 9.08808 55.1689 9.76008Z" fill="#9793F2"/>
<path opacity="0.65" d="M26.2402 44.5759V44.8319L28.3522 46.7839L36.4482 42.8479L29.1202 47.5519V49.8559L30.3042 48.7039V48.6719V48.7039L31.4882 49.8559L37.7602 42.1759V41.9199L26.2402 44.5759Z" fill="#BDBBF8"/>
<path opacity="0.5" d="M53.7595 34.4959V34.4319C53.7595 34.3679 53.7275 34.3359 53.7275 34.2719V34.24L46.8475 16.288C45.8555 13.248 43.0395 11.2 39.8395 11.2H24.1915C20.9915 11.2 18.1755 13.248 17.1835 16.288L10.3035 34.24V34.2719C10.2715 34.3359 10.2715 34.3679 10.2715 34.4319V47.36C10.2715 51.424 13.5675 54.72 17.6315 54.72H46.4315C50.4955 54.72 53.7915 51.424 53.7915 47.36V34.56C53.7595 34.528 53.7595 34.5279 53.7595 34.4959V34.4959ZM18.9755 16.96C18.9755 16.96 18.9755 16.928 19.0075 16.928C19.7115 14.624 21.8235 13.12 24.1915 13.12H39.8075C42.1755 13.12 44.2875 14.624 45.0235 16.896C45.0235 16.896 45.0235 16.928 45.0555 16.928L51.4235 33.568H36.7995C36.2555 33.568 35.8395 33.984 35.8395 34.528C35.8395 36.64 34.1115 38.368 31.9995 38.368C29.8875 38.368 28.1595 36.64 28.1595 34.528C28.1595 33.984 27.7435 33.568 27.1995 33.568H12.6075L18.9755 16.96ZM51.8395 47.36C51.8395 50.368 49.4075 52.7999 46.3995 52.7999H17.5995C14.5915 52.7999 12.1595 50.368 12.1595 47.36V35.52H26.3355C26.7835 38.24 29.1515 40.32 31.9995 40.32C34.8475 40.32 37.2155 38.24 37.6635 35.52H51.8395V47.36Z" fill="#8A85F2"/>
<path opacity="0.45" d="M31.9998 36.1601C31.1038 36.1601 30.3998 35.4561 30.3998 34.5601V31.3601H15.8398L21.0878 17.6641L21.1198 17.6001C21.5678 16.2561 22.7838 15.3601 24.1918 15.3601H39.8078C41.2158 15.3601 42.4318 16.2561 42.8798 17.6001L42.9118 17.6641L48.1598 31.3601H33.5998V34.5601C33.5998 35.4561 32.8958 36.1601 31.9998 36.1601V36.1601Z" fill="#EDECFD"/>
</svg>
